<svg width="170" height="60" viewBox="0 0 170 60" fill="none" xmlns="http://www.w3.org/2000/svg">
<path fill-rule="evenodd" clip-rule="evenodd" d="M17.3885 14C15.5575 14 14.2646 14.8991 13.2489 16.1366C12.3941 17.178 11.5863 18.646 10.693 20.2693C10.6287 20.3861 10.5639 20.5037 10.4987 20.6221C8.47227 24.2988 3.15874 33.6668 0.750209 37.9001L0.749691 37.9011C-0.490422 40.0834 -0.122555 42.5896 1.34218 44.1986C2.886 45.8942 5.4119 46.3569 7.8004 44.9547C9.67035 43.858 11.526 42.781 13.1956 41.812C14.8226 40.8679 16.2735 40.0264 17.3886 39.3679C18.4914 40.0188 19.9224 40.8486 21.5275 41.7795L21.5292 41.7802C23.2145 42.7574 25.0917 43.8461 26.9818 44.9547C29.3702 46.3569 31.8962 45.8942 33.44 44.1986C34.9047 42.5896 35.2725 40.0834 34.0324 37.9011L34.0319 37.9001C31.6234 33.6668 26.3099 24.2988 24.2834 20.6221C24.2216 20.5099 24.1602 20.3983 24.0992 20.2875C23.2013 18.6561 22.3895 17.1811 21.5296 16.1354C20.5126 14.8983 19.2187 14 17.3885 14Z" fill="#FF3A1F"/>
<path fill-rule="evenodd" clip-rule="evenodd" d="M17.3885 14C15.5575 14 14.2646 14.8991 13.2489 16.1366C12.3941 17.178 11.5863 18.646 10.693 20.2693C10.6287 20.3861 10.5639 20.5037 10.4987 20.6221C8.47227 24.2988 3.15874 33.6668 0.750209 37.9001L0.749691 37.9011C-0.490422 40.0834 -0.122555 42.5896 1.34218 44.1986C2.88474 45.8928 5.40769 46.3562 7.79434 44.9585L28.8728 32.7678C29.2967 32.5226 29.7987 32.2247 30.5525 31.7707C30.3111 31.3467 30.1354 31.0311 29.9766 30.7455C29.8486 30.5155 29.7315 30.3051 29.5996 30.0733L29.1727 29.3228C27.0804 25.646 26.186 24.0739 24.2834 20.6221C24.2216 20.5099 24.1602 20.3983 24.0992 20.2875C23.2013 18.6561 22.3895 17.1811 21.5297 16.1354C20.5126 14.8983 19.2187 14 17.3885 14Z" fill="#293346"/>
<path fill-rule="evenodd" clip-rule="evenodd" d="M94.6579 20.4982H98.9145V27.8988H107.995V20.4982H112.252V27.8988V32.1684V39.5691H107.995V32.1684H98.9145V39.5691H94.6579V32.1684V27.8988V20.4982Z" fill="#293346"/>
<path fill-rule="evenodd" clip-rule="evenodd" d="M53.8664 35.2995C53.9058 35.2097 55.7527 30.978 56.4063 24.7678H62.024V35.2995H53.8664ZM49.6098 35.2995C49.6544 35.182 52.376 27.98 52.376 20.4996V20.4982H62.024H66.2807V24.7678V35.2995H69.6858V39.5691H66.2807H62.024H46.133V35.2995H49.6098Z" fill="#293346"/>
<path fill-rule="evenodd" clip-rule="evenodd" d="M84.189 34.3517C83.2688 35.0365 82.1291 35.4417 80.8948 35.4417C78.6116 35.4417 76.6514 34.0545 75.8058 32.0747H80.8748H85.9844H90.4421C90.601 31.3724 90.6853 30.6416 90.6853 29.8912C90.6853 24.4676 86.3022 20.071 80.8948 20.071C75.488 20.071 71.1049 24.4676 71.1049 29.8912C71.1049 35.3147 75.488 39.7113 80.8948 39.7113C83.631 39.7113 86.1041 38.5857 87.881 36.7712C88.0813 36.5662 88.2734 36.3526 88.4553 36.1308L84.189 34.3517ZM75.7659 27.8049C76.5878 25.7733 78.5746 24.3407 80.8948 24.3407C83.2156 24.3407 85.2024 25.7733 86.0243 27.8049H75.7659Z" fill="#293346"/>
<path fill-rule="evenodd" clip-rule="evenodd" d="M120.765 20.4982H116.509V27.6142V31.8838V35.2995V39.5691H120.765H126.441C129.732 39.5691 132.4 36.893 132.4 33.5917C132.4 30.2904 129.732 27.6142 126.441 27.6142H120.765V20.4982ZM120.765 31.8838V35.2995H126.441C127.381 35.2995 128.143 34.5349 128.143 33.5917C128.143 32.6484 127.381 31.8838 126.441 31.8838H120.765Z" fill="#293346"/>
<path fill-rule="evenodd" clip-rule="evenodd" d="M152.263 20.4982H156.521V33.5467L165.743 20.4982H170V39.5691H165.743V26.5206L156.521 39.5691H152.263V20.4982Z" fill="#293346"/>
<path fill-rule="evenodd" clip-rule="evenodd" d="M140.63 20.4982H136.373V24.7677V39.5691H140.63V24.7677H148.008V20.4982H140.63Z" fill="#293346"/>
</svg>
